<svg width="338" height="338" viewBox="0 0 338 338" fill="none" xmlns="http://www.w3.org/2000/svg">
<g clip-path="url(#clip0_5_28)">
<rect width="338" height="338" rx="25" fill="#FB8661"/>
<path d="M126.743 65H69.9286C69.3591 65 68.9319 65.5696 68.9319 66.1391V163.678C68.9319 164.247 69.3591 164.675 69.9286 164.675H106.951C107.52 164.675 107.947 164.247 107.947 163.678V145.452C107.947 144.882 108.517 144.313 109.087 144.313H125.319C147.248 144.313 165.901 127.225 166.328 105.439C166.755 83.2262 148.814 65 126.743 65ZM118.2 114.125H109.087C108.517 114.125 107.947 113.698 107.947 112.986V97.0383C107.947 96.4687 108.517 96.0415 109.087 96.0415H118.627C123.895 96.0415 128.167 100.598 127.598 106.009C127.17 110.708 122.899 114.125 118.2 114.125Z" fill="white"/>
<path d="M234.015 128.365C223.762 128.365 218.494 123.666 218.494 114.695C218.494 105.867 223.762 101.168 234.015 101.168H268.616C269.186 101.168 269.613 100.74 269.613 100.171V65.9968C269.613 65.4272 269.186 65 268.616 65H230.17C197.135 65 178.197 83.0838 178.197 114.695C178.197 146.448 197.135 164.532 230.17 164.532H268.616C269.186 164.532 269.613 164.105 269.613 163.536V129.361C269.613 128.792 269.186 128.365 268.616 128.365H234.015Z" fill="white"/>
<path d="M157.642 173.26H69.9286C69.3591 173.26 68.9319 173.687 68.9319 174.257V271.796C68.9319 272.365 69.3591 272.935 69.9286 272.935H106.808C107.378 272.935 107.947 272.365 107.947 271.796V239.33C107.947 238.761 108.375 238.333 108.944 238.333H155.649C156.218 238.333 156.646 237.764 156.646 237.194V212.276C156.646 211.706 156.218 211.137 155.649 211.137H108.944C108.375 211.137 107.947 210.709 107.947 210.14V205.298C107.947 204.586 108.375 204.159 108.944 204.159H157.642C158.212 204.159 158.781 203.732 158.781 203.02V174.257C158.781 173.687 158.212 173.26 157.642 173.26Z" fill="white"/>
<path d="M268.804 173.26H237.684C237.257 173.26 236.829 173.403 236.687 173.687L228.854 200.489C228.427 201.201 227.43 201.201 227.003 200.489L218.16 173.687C218.018 173.403 217.591 173.26 217.306 173.26H186.043C185.189 173.26 184.762 174.115 185.189 174.826L207.702 234.805C207.845 235.09 207.845 235.233 207.845 235.375V271.796C207.845 272.365 208.272 272.935 208.984 272.935H246.006C246.576 272.935 247.003 272.365 247.003 271.796V235.375C247.003 235.233 247.003 235.09 247.145 234.805L269.801 174.826C270.228 174.115 269.659 173.26 268.804 173.26Z" fill="white"/>
</g>
<defs>
<clipPath id="clip0_5_28">
<rect width="338" height="338" fill="white"/>
</clipPath>
</defs>
</svg>
