<?xml version="1.0" standalone="no"?>
<!DOCTYPE svg PUBLIC "-//W3C//DTD SVG 20010904//EN"
 "http://www.w3.org/TR/2001/REC-SVG-20010904/DTD/svg10.dtd">
<svg version="1.0" xmlns="http://www.w3.org/2000/svg"
 width="700.000000pt" height="700.000000pt" viewBox="0 0 700.000000 700.000000"
 preserveAspectRatio="xMidYMid meet">
<metadata>
Created by potrace 1.14, written by Peter Selinger 2001-2017
</metadata>
<g transform="translate(0.000000,700.000000) scale(0.100000,-0.100000)"
fill="#000000" stroke="none">
<path d="M447 6990 c-129 -17 -256 -92 -339 -202 -56 -74 -86 -148 -98 -243
-13 -95 -12 -5997 0 -6092 31 -235 214 -415 453 -444 53 -6 1163 -9 3097 -7
l3015 3 65 23 c158 56 275 173 332 332 l23 65 3 3015 c2 1894 -1 3045 -7 3095
-13 104 -41 176 -102 257 -58 77 -152 146 -249 180 l-65 23 -3035 1 c-1669 1
-3061 -2 -3093 -6z m2373 -1354 c96 -26 257 -108 327 -166 34 -28 85 -79 113
-113 62 -74 144 -237 165 -327 89 -377 -91 -754 -444 -930 -145 -73 -195 -82
-481 -89 l-255 -6 -5 -205 -5 -205 -405 0 -405 0 -3 1019 c-1 767 1 1022 10
1033 10 12 112 14 667 11 592 -4 662 -6 721 -22z m2759 10 c8 -9 11 -117 9
-377 l-3 -364 -425 -5 c-454 -6 -466 -8 -537 -59 -115 -83 -125 -314 -19 -416
75 -73 91 -75 556 -75 333 0 410 -3 419 -14 8 -9 11 -117 9 -377 l-3 -364
-455 -3 c-471 -3 -589 3 -724 38 -336 86 -559 287 -660 595 -39 121 -56 241
-56 400 0 530 247 872 717 991 142 36 232 41 714 43 367 1 449 -1 458 -13z
m-2301 -2234 c9 -7 12 -78 10 -323 l-3 -314 -520 -5 -520 -5 0 -65 0 -65 500
-5 500 -5 3 -260 c1 -143 0 -270 -3 -282 l-5 -23 -500 0 -500 0 0 -348 c0
-257 -3 -351 -12 -360 -17 -17 -779 -17 -796 0 -17 17 -17 2039 0 2056 9 9
227 12 923 12 500 0 916 -4 923 -8z m1230 0 c7 -5 54 -134 106 -288 62 -188
97 -279 107 -279 9 0 39 85 95 279 45 153 88 282 95 287 16 10 638 12 663 3 9
-3 16 -14 16 -23 0 -9 -106 -297 -235 -639 l-235 -622 0 -383 c0 -285 -3 -386
-12 -395 -17 -17 -779 -17 -796 0 -9 9 -12 110 -12 395 l0 383 -235 627 c-129
344 -235 632 -235 639 0 7 6 15 13 17 21 9 651 7 665 -1z"/>
<path d="M2244 4997 c-2 -7 -3 -89 -2 -182 l3 -170 115 -3 c136 -3 181 10 233
67 41 45 52 85 42 149 -9 58 -70 124 -130 141 -58 16 -254 15 -261 -2z"/>
</g>
</svg>
