<svg width="147" height="152" viewBox="0 0 147 152" fill="none" xmlns="http://www.w3.org/2000/svg">
<path d="M42.2418 0H0.728308C0.312132 0 0 0.416177 0 0.832353V72.1025C0 72.5186 0.312132 72.8308 0.728308 72.8308H27.7797C28.1959 72.8308 28.508 72.5186 28.508 72.1025V58.7848C28.508 58.3687 28.9242 57.9525 29.3404 57.9525H41.2014C57.2242 57.9525 70.8539 45.4672 71.1661 29.5485C71.4782 13.3176 58.3687 0 42.2418 0ZM35.9992 35.8952H29.3404C28.9242 35.8952 28.508 35.583 28.508 35.0628V23.4099C28.508 22.9937 28.9242 22.6816 29.3404 22.6816H36.3113C40.161 22.6816 43.2823 26.011 42.8661 29.9647C42.554 33.3981 39.4327 35.8952 35.9992 35.8952Z" fill="#FB8661"/>
<path d="M120.623 46.2996C113.132 46.2996 109.283 42.8661 109.283 36.3113C109.283 29.8606 113.132 26.4272 120.623 26.4272H145.906C146.322 26.4272 146.634 26.115 146.634 25.6989V0.728311C146.634 0.312134 146.322 0 145.906 0H117.814C93.6761 0 79.8383 13.2136 79.8383 36.3113C79.8383 59.5131 93.6761 72.7267 117.814 72.7267H145.906C146.322 72.7267 146.634 72.4146 146.634 71.9984V47.0279C146.634 46.6117 146.322 46.2996 145.906 46.2996H120.623Z" fill="#FB8661"/>
<path d="M64.8194 79.104H0.728308C0.312132 79.104 0 79.4162 0 79.8324V151.102C0 151.519 0.312132 151.935 0.728308 151.935H27.6757C28.0919 151.935 28.508 151.519 28.508 151.102V127.38C28.508 126.964 28.8202 126.652 29.2363 126.652H63.3628C63.7789 126.652 64.0911 126.236 64.0911 125.82V107.612C64.0911 107.196 63.7789 106.78 63.3628 106.78H29.2363C28.8202 106.78 28.508 106.468 28.508 106.051V102.514C28.508 101.994 28.8202 101.682 29.2363 101.682H64.8194C65.2356 101.682 65.6517 101.369 65.6517 100.849V79.8324C65.6517 79.4162 65.2356 79.104 64.8194 79.104Z" fill="#FB8661"/>
<path d="M146.044 79.104H123.304C122.992 79.104 122.68 79.2081 122.576 79.4162L116.853 99C116.54 99.5202 115.812 99.5202 115.5 99L109.039 79.4162C108.935 79.2081 108.623 79.104 108.415 79.104H85.5715C84.9472 79.104 84.6351 79.7283 84.9472 80.2485L101.398 124.074C101.502 124.282 101.502 124.386 101.502 124.49V151.102C101.502 151.519 101.814 151.935 102.334 151.935H129.385C129.802 151.935 130.114 151.519 130.114 151.102V124.49C130.114 124.386 130.114 124.282 130.218 124.074L146.772 80.2485C147.084 79.7283 146.668 79.104 146.044 79.104Z" fill="#FB8661"/>
</svg>
